<mxfile host="65bd71144e" scale="1" border="0">
    <diagram id="0Dglr0f3MZDWwm_da_3T" name="Page-1">
        <mxGraphModel dx="2105" dy="1836" grid="1" gridSize="10" guides="1" tooltips="1" connect="1" arrows="1" fold="1" page="1" pageScale="1" pageWidth="850" pageHeight="1100" math="0" shadow="0">
            <root>
                <mxCell id="0"/>
                <mxCell id="1" parent="0"/>
                <mxCell id="93" value="" style="rounded=0;whiteSpace=wrap;html=1;labelBackgroundColor=none;fontSize=24;fontColor=#000000;fillColor=none;" parent="1" vertex="1">
                    <mxGeometry x="-40" y="-120" width="1240" height="960" as="geometry"/>
                </mxCell>
                <mxCell id="2" value="" style="rounded=0;whiteSpace=wrap;html=1;strokeColor=#0F75C2;" parent="1" vertex="1">
                    <mxGeometry y="180" width="600" height="640" as="geometry"/>
                </mxCell>
                <mxCell id="3" value="" style="rounded=0;whiteSpace=wrap;html=1;strokeColor=#0F75C2;" parent="1" vertex="1">
                    <mxGeometry x="680" y="180" width="200" height="640" as="geometry"/>
                </mxCell>
                <mxCell id="4" value="" style="rounded=0;whiteSpace=wrap;html=1;strokeColor=#0F75C2;" parent="1" vertex="1">
                    <mxGeometry x="960" y="180" width="200" height="640" as="geometry"/>
                </mxCell>
                <mxCell id="5" value="" style="rounded=0;whiteSpace=wrap;html=1;dashed=1;dashPattern=1 4;" parent="1" vertex="1">
                    <mxGeometry width="260" height="80" as="geometry"/>
                </mxCell>
                <mxCell id="7" value="" style="rounded=0;whiteSpace=wrap;html=1;dashed=1;dashPattern=8 8;" parent="1" vertex="1">
                    <mxGeometry x="700" y="220" width="160" height="580" as="geometry"/>
                </mxCell>
                <mxCell id="8" value="" style="rounded=0;whiteSpace=wrap;html=1;dashed=1;dashPattern=8 8;" parent="1" vertex="1">
                    <mxGeometry x="980" y="220" width="160" height="580" as="geometry"/>
                </mxCell>
                <mxCell id="124" style="edgeStyle=orthogonalEdgeStyle;html=1;exitX=0.5;exitY=0;exitDx=0;exitDy=0;entryX=0.5;entryY=1;entryDx=0;entryDy=0;fontSize=24;fontColor=#000000;endArrow=block;endFill=1;" parent="1" source="9" target="28" edge="1">
                    <mxGeometry relative="1" as="geometry"/>
                </mxCell>
                <mxCell id="9" value="" style="rounded=0;whiteSpace=wrap;html=1;dashed=1;dashPattern=8 8;" parent="1" vertex="1">
                    <mxGeometry x="20" y="220" width="200" height="580" as="geometry"/>
                </mxCell>
                <mxCell id="10" value="" style="rounded=0;whiteSpace=wrap;html=1;dashed=1;dashPattern=8 8;" parent="1" vertex="1">
                    <mxGeometry x="380" y="220" width="197.43" height="580" as="geometry"/>
                </mxCell>
                <mxCell id="11" value="" style="rounded=0;whiteSpace=wrap;html=1;dashed=1;dashPattern=1 4;fillColor=#dbeef3;" parent="1" vertex="1">
                    <mxGeometry x="40" y="510" width="520" height="120.5" as="geometry"/>
                </mxCell>
                <mxCell id="13" value="" style="rounded=0;whiteSpace=wrap;html=1;dashed=1;dashPattern=1 4;fillColor=#dbeef3;" parent="1" vertex="1">
                    <mxGeometry x="40" y="659.5" width="520" height="120" as="geometry"/>
                </mxCell>
                <mxCell id="14" value="" style="rounded=0;whiteSpace=wrap;html=1;dashed=1;dashPattern=1 4;fillColor=#dbeef3;" parent="1" vertex="1">
                    <mxGeometry x="40" y="356.5" width="520" height="123.5" as="geometry"/>
                </mxCell>
                <mxCell id="20" value="" style="shape=image;verticalLabelPosition=bottom;labelBackgroundColor=default;verticalAlign=top;aspect=fixed;imageAspect=0;image=https://vectorseek.com/wp-content/uploads/2023/08/Azure-Databricks-Logo-Vector.svg-.png;" parent="1" vertex="1">
                    <mxGeometry x="753.405" y="388.25" width="53.19" height="60" as="geometry"/>
                </mxCell>
                <mxCell id="21" value="" style="shape=image;verticalLabelPosition=bottom;labelBackgroundColor=default;verticalAlign=top;aspect=fixed;imageAspect=0;image=https://www.latindevelopers.com/wp-content/uploads/2017/12/sql_icon-640x640.png;" parent="1" vertex="1">
                    <mxGeometry x="755" y="260" width="50" height="50" as="geometry"/>
                </mxCell>
                <mxCell id="23" value="" style="shape=image;verticalLabelPosition=bottom;labelBackgroundColor=default;verticalAlign=top;aspect=fixed;imageAspect=0;image=https://azure.microsoft.com/svghandler/storage-blobs/?width=600&amp;height=315;" parent="1" vertex="1">
                    <mxGeometry x="739.045" y="548.75" width="81.91" height="43" as="geometry"/>
                </mxCell>
                <mxCell id="24" value="" style="shape=image;verticalLabelPosition=bottom;labelBackgroundColor=default;verticalAlign=top;aspect=fixed;imageAspect=0;image=https://azureplayer.net/wp-content/uploads/2018/12/azure-data-factory-300x257.png;" parent="1" vertex="1">
                    <mxGeometry x="752.57" y="696" width="54.86" height="47" as="geometry"/>
                </mxCell>
                <mxCell id="92" style="edgeStyle=none;html=1;entryX=0;entryY=0.5;entryDx=0;entryDy=0;fontSize=24;fontColor=#000000;endArrow=block;endFill=1;" parent="1" source="28" target="45" edge="1">
                    <mxGeometry relative="1" as="geometry"/>
                </mxCell>
                <mxCell id="28" value="" style="shape=image;verticalLabelPosition=bottom;labelBackgroundColor=default;verticalAlign=top;aspect=fixed;imageAspect=0;image=https://cdn.freebiesupply.com/logos/large/2x/git-icon-logo-png-transparent.png;" parent="1" vertex="1">
                    <mxGeometry x="20" y="22.240000000000002" width="38.76" height="38.76" as="geometry"/>
                </mxCell>
                <mxCell id="91" style="edgeStyle=none;html=1;entryX=0;entryY=0.5;entryDx=0;entryDy=0;fontSize=24;fontColor=#000000;endArrow=block;endFill=1;" parent="1" source="45" target="46" edge="1">
                    <mxGeometry relative="1" as="geometry"/>
                </mxCell>
                <mxCell id="45" value="" style="shape=image;verticalLabelPosition=bottom;labelBackgroundColor=default;verticalAlign=top;aspect=fixed;imageAspect=0;image=https://www.wecoderight.com/wp-content/uploads/2023/06/azure.png;" parent="1" vertex="1">
                    <mxGeometry x="99.5" y="20.62" width="42" height="42" as="geometry"/>
                </mxCell>
                <mxCell id="46" value="" style="shape=image;verticalLabelPosition=bottom;labelBackgroundColor=default;verticalAlign=top;aspect=fixed;imageAspect=0;image=https://www.wecoderight.com/wp-content/uploads/2023/06/azure.png;" parent="1" vertex="1">
                    <mxGeometry x="200" y="20.62" width="42" height="42" as="geometry"/>
                </mxCell>
                <mxCell id="47" value="" style="shape=image;verticalLabelPosition=bottom;labelBackgroundColor=default;verticalAlign=top;aspect=fixed;imageAspect=0;image=https://www.latindevelopers.com/wp-content/uploads/2017/12/sql_icon-640x640.png;" parent="1" vertex="1">
                    <mxGeometry x="453.71500000000003" y="260" width="50" height="50" as="geometry"/>
                </mxCell>
                <mxCell id="48" value="" style="shape=image;verticalLabelPosition=bottom;labelBackgroundColor=default;verticalAlign=top;aspect=fixed;imageAspect=0;image=https://www.latindevelopers.com/wp-content/uploads/2017/12/sql_icon-640x640.png;" parent="1" vertex="1">
                    <mxGeometry x="105.5" y="270" width="30" height="30" as="geometry"/>
                </mxCell>
                <mxCell id="49" value="" style="shape=image;verticalLabelPosition=bottom;labelBackgroundColor=default;verticalAlign=top;aspect=fixed;imageAspect=0;image=https://www.latindevelopers.com/wp-content/uploads/2017/12/sql_icon-640x640.png;" parent="1" vertex="1">
                    <mxGeometry x="150.5" y="270" width="30" height="30" as="geometry"/>
                </mxCell>
                <mxCell id="50" value="" style="shape=image;verticalLabelPosition=bottom;labelBackgroundColor=default;verticalAlign=top;aspect=fixed;imageAspect=0;image=https://www.latindevelopers.com/wp-content/uploads/2017/12/sql_icon-640x640.png;" parent="1" vertex="1">
                    <mxGeometry x="60" y="270" width="30" height="30" as="geometry"/>
                </mxCell>
                <mxCell id="52" value="" style="shape=image;verticalLabelPosition=bottom;labelBackgroundColor=default;verticalAlign=top;aspect=fixed;imageAspect=0;image=https://vectorseek.com/wp-content/uploads/2023/08/Azure-Databricks-Logo-Vector.svg-.png;" parent="1" vertex="1">
                    <mxGeometry x="49" y="331.5" width="38.19" height="43.08" as="geometry"/>
                </mxCell>
                <mxCell id="53" value="" style="shape=image;verticalLabelPosition=bottom;labelBackgroundColor=default;verticalAlign=top;aspect=fixed;imageAspect=0;image=https://azure.microsoft.com/svghandler/storage-blobs/?width=600&amp;height=315;" parent="1" vertex="1">
                    <mxGeometry x="40" y="489.5" width="57.15" height="30" as="geometry"/>
                </mxCell>
                <mxCell id="54" value="" style="shape=image;verticalLabelPosition=bottom;labelBackgroundColor=default;verticalAlign=top;aspect=fixed;imageAspect=0;image=https://azureplayer.net/wp-content/uploads/2018/12/azure-data-factory-300x257.png;" parent="1" vertex="1">
                    <mxGeometry x="50" y="641" width="37.19" height="31.86" as="geometry"/>
                </mxCell>
                <mxCell id="55" value="" style="shape=image;verticalLabelPosition=bottom;labelBackgroundColor=default;verticalAlign=top;aspect=fixed;imageAspect=0;image=https://azureplayer.net/wp-content/uploads/2018/12/azure-data-factory-300x257.png;" parent="1" vertex="1">
                    <mxGeometry x="451.285" y="696" width="54.86" height="47" as="geometry"/>
                </mxCell>
                <mxCell id="6" value="" style="rounded=0;whiteSpace=wrap;html=1;dashed=1;dashPattern=1 4;" parent="1" vertex="1">
                    <mxGeometry x="300" width="660" height="80" as="geometry"/>
                </mxCell>
                <mxCell id="109" style="edgeStyle=orthogonalEdgeStyle;html=1;entryX=0;entryY=0.5;entryDx=0;entryDy=0;fontSize=24;fontColor=#000000;endArrow=block;endFill=1;" parent="1" target="106" edge="1">
                    <mxGeometry relative="1" as="geometry">
                        <Array as="points">
                            <mxPoint x="920" y="285"/>
                        </Array>
                        <mxPoint x="920" y="51" as="sourcePoint"/>
                    </mxGeometry>
                </mxCell>
                <mxCell id="110" style="edgeStyle=orthogonalEdgeStyle;html=1;entryX=0;entryY=0.5;entryDx=0;entryDy=0;fontSize=24;fontColor=#000000;endArrow=block;endFill=1;" parent="1" target="105" edge="1">
                    <mxGeometry relative="1" as="geometry">
                        <Array as="points">
                            <mxPoint x="920" y="418"/>
                        </Array>
                        <mxPoint x="920.0000000000005" y="20.000000000000455" as="sourcePoint"/>
                    </mxGeometry>
                </mxCell>
                <mxCell id="111" style="edgeStyle=orthogonalEdgeStyle;html=1;entryX=0;entryY=0.5;entryDx=0;entryDy=0;fontSize=24;fontColor=#000000;endArrow=block;endFill=1;" parent="1" target="107" edge="1">
                    <mxGeometry relative="1" as="geometry">
                        <Array as="points">
                            <mxPoint x="920" y="569.75"/>
                        </Array>
                        <mxPoint x="920" y="-27.250000000000227" as="sourcePoint"/>
                    </mxGeometry>
                </mxCell>
                <mxCell id="143" style="edgeStyle=orthogonalEdgeStyle;html=1;entryX=0;entryY=0.5;entryDx=0;entryDy=0;fontSize=14;" edge="1" parent="1">
                    <mxGeometry relative="1" as="geometry">
                        <mxPoint x="920" y="61" as="sourcePoint"/>
                        <mxPoint x="1031.5699999999997" y="720.04" as="targetPoint"/>
                        <Array as="points">
                            <mxPoint x="920" y="720"/>
                        </Array>
                    </mxGeometry>
                </mxCell>
                <mxCell id="25" value="" style="shape=image;verticalLabelPosition=bottom;labelBackgroundColor=default;verticalAlign=top;aspect=fixed;imageAspect=0;image=https://www.wecoderight.com/wp-content/uploads/2023/06/azure.png;" parent="1" vertex="1">
                    <mxGeometry x="900" y="19" width="42" height="42" as="geometry"/>
                </mxCell>
                <mxCell id="96" style="html=1;entryX=0;entryY=0.5;entryDx=0;entryDy=0;fontSize=24;fontColor=#000000;endArrow=block;endFill=1;edgeStyle=orthogonalEdgeStyle;" parent="1" source="29" target="87" edge="1">
                    <mxGeometry relative="1" as="geometry">
                        <Array as="points">
                            <mxPoint x="621" y="138"/>
                        </Array>
                    </mxGeometry>
                </mxCell>
                <mxCell id="97" style="edgeStyle=orthogonalEdgeStyle;html=1;entryX=0;entryY=0.5;entryDx=0;entryDy=0;fontSize=24;fontColor=#000000;endArrow=block;endFill=1;" parent="1" source="29" target="21" edge="1">
                    <mxGeometry relative="1" as="geometry">
                        <Array as="points">
                            <mxPoint x="621" y="285"/>
                        </Array>
                    </mxGeometry>
                </mxCell>
                <mxCell id="98" style="edgeStyle=orthogonalEdgeStyle;html=1;entryX=0;entryY=0.5;entryDx=0;entryDy=0;fontSize=24;fontColor=#000000;endArrow=block;endFill=1;" parent="1" target="20" edge="1">
                    <mxGeometry relative="1" as="geometry">
                        <Array as="points">
                            <mxPoint x="621" y="418"/>
                        </Array>
                        <mxPoint x="621" y="20.62" as="sourcePoint"/>
                    </mxGeometry>
                </mxCell>
                <mxCell id="99" style="edgeStyle=orthogonalEdgeStyle;html=1;entryX=0;entryY=0.5;entryDx=0;entryDy=0;fontSize=24;fontColor=#000000;endArrow=block;endFill=1;" parent="1" target="23" edge="1">
                    <mxGeometry relative="1" as="geometry">
                        <Array as="points">
                            <mxPoint x="621" y="570.75"/>
                        </Array>
                        <mxPoint x="621" y="-27.25" as="sourcePoint"/>
                    </mxGeometry>
                </mxCell>
                <mxCell id="100" style="edgeStyle=orthogonalEdgeStyle;html=1;entryX=0;entryY=0.5;entryDx=0;entryDy=0;fontSize=24;fontColor=#000000;endArrow=block;endFill=1;" parent="1" edge="1">
                    <mxGeometry relative="1" as="geometry">
                        <Array as="points">
                            <mxPoint x="620.85" y="720.54"/>
                        </Array>
                        <mxPoint x="620.85" y="-37.459999999999994" as="sourcePoint"/>
                        <mxPoint x="752.4200000000001" y="720.04" as="targetPoint"/>
                    </mxGeometry>
                </mxCell>
                <mxCell id="29" value="" style="shape=image;verticalLabelPosition=bottom;labelBackgroundColor=default;verticalAlign=top;aspect=fixed;imageAspect=0;image=https://www.wecoderight.com/wp-content/uploads/2023/06/azure.png;" parent="1" vertex="1">
                    <mxGeometry x="600" y="19" width="42" height="42" as="geometry"/>
                </mxCell>
                <mxCell id="101" style="edgeStyle=orthogonalEdgeStyle;html=1;entryX=0;entryY=0.5;entryDx=0;entryDy=0;fontSize=24;fontColor=#000000;endArrow=block;endFill=1;" parent="1" source="30" target="47" edge="1">
                    <mxGeometry relative="1" as="geometry">
                        <Array as="points">
                            <mxPoint x="340" y="285"/>
                        </Array>
                    </mxGeometry>
                </mxCell>
                <mxCell id="102" style="edgeStyle=orthogonalEdgeStyle;html=1;entryX=0;entryY=0.5;entryDx=0;entryDy=0;fontSize=24;fontColor=#000000;endArrow=block;endFill=1;" parent="1" source="30" target="59" edge="1">
                    <mxGeometry relative="1" as="geometry">
                        <Array as="points">
                            <mxPoint x="340" y="406"/>
                            <mxPoint x="416" y="406"/>
                        </Array>
                    </mxGeometry>
                </mxCell>
                <mxCell id="103" style="edgeStyle=orthogonalEdgeStyle;html=1;entryX=0;entryY=0.5;entryDx=0;entryDy=0;fontSize=24;fontColor=#000000;endArrow=block;endFill=1;" parent="1" source="30" target="74" edge="1">
                    <mxGeometry relative="1" as="geometry">
                        <Array as="points">
                            <mxPoint x="340" y="605"/>
                        </Array>
                    </mxGeometry>
                </mxCell>
                <mxCell id="104" style="edgeStyle=orthogonalEdgeStyle;html=1;entryX=0;entryY=0.5;entryDx=0;entryDy=0;fontSize=24;fontColor=#000000;endArrow=block;endFill=1;" parent="1" target="55" edge="1">
                    <mxGeometry relative="1" as="geometry">
                        <Array as="points">
                            <mxPoint x="340" y="719"/>
                        </Array>
                        <mxPoint x="340" y="20" as="sourcePoint"/>
                    </mxGeometry>
                </mxCell>
                <mxCell id="30" value="" style="shape=image;verticalLabelPosition=bottom;labelBackgroundColor=default;verticalAlign=top;aspect=fixed;imageAspect=0;image=https://www.wecoderight.com/wp-content/uploads/2023/06/azure.png;" parent="1" vertex="1">
                    <mxGeometry x="320" y="19" width="42" height="42" as="geometry"/>
                </mxCell>
                <mxCell id="43" style="edgeStyle=none;html=1;entryX=0.5;entryY=0;entryDx=0;entryDy=0;fontSize=8;endArrow=block;endFill=1;" parent="1" source="32" target="25" edge="1">
                    <mxGeometry relative="1" as="geometry"/>
                </mxCell>
                <mxCell id="32" value="" style="shape=image;verticalLabelPosition=bottom;labelBackgroundColor=default;verticalAlign=top;aspect=fixed;imageAspect=0;image=https://th.bing.com/th/id/R.425f8742365816e2ba841bae27d17bf5?rik=dSs6wGiK%2bL6DQA&amp;riu=http%3a%2f%2fres.cloudinary.com%2fsamcogan%2fimage%2fupload%2fv1486673367%2fdownload_wihpz4.png&amp;ehk=tR6%2bY7TvAZzh0mhlQFzgbvJCC7W2iLvpzsC26Oey5AY%3d&amp;risl=&amp;pid=ImgRaw&amp;r=0&amp;sres=1&amp;sresct=1;" parent="1" vertex="1">
                    <mxGeometry x="886" y="-67.5" width="70" height="36.75" as="geometry"/>
                </mxCell>
                <mxCell id="42" style="edgeStyle=none;html=1;entryX=0.5;entryY=0;entryDx=0;entryDy=0;fontSize=8;endArrow=block;endFill=1;" parent="1" source="33" target="29" edge="1">
                    <mxGeometry relative="1" as="geometry"/>
                </mxCell>
                <mxCell id="33" value="" style="shape=image;verticalLabelPosition=bottom;labelBackgroundColor=default;verticalAlign=top;aspect=fixed;imageAspect=0;image=https://th.bing.com/th/id/R.425f8742365816e2ba841bae27d17bf5?rik=dSs6wGiK%2bL6DQA&amp;riu=http%3a%2f%2fres.cloudinary.com%2fsamcogan%2fimage%2fupload%2fv1486673367%2fdownload_wihpz4.png&amp;ehk=tR6%2bY7TvAZzh0mhlQFzgbvJCC7W2iLvpzsC26Oey5AY%3d&amp;risl=&amp;pid=ImgRaw&amp;r=0&amp;sres=1&amp;sresct=1;" parent="1" vertex="1">
                    <mxGeometry x="586" y="-67.5" width="70" height="36.75" as="geometry"/>
                </mxCell>
                <mxCell id="41" style="edgeStyle=none;html=1;entryX=0.5;entryY=0;entryDx=0;entryDy=0;fontSize=8;endArrow=block;endFill=1;" parent="1" source="34" target="30" edge="1">
                    <mxGeometry relative="1" as="geometry"/>
                </mxCell>
                <mxCell id="34" value="" style="shape=image;verticalLabelPosition=bottom;labelBackgroundColor=default;verticalAlign=top;aspect=fixed;imageAspect=0;image=https://th.bing.com/th/id/R.425f8742365816e2ba841bae27d17bf5?rik=dSs6wGiK%2bL6DQA&amp;riu=http%3a%2f%2fres.cloudinary.com%2fsamcogan%2fimage%2fupload%2fv1486673367%2fdownload_wihpz4.png&amp;ehk=tR6%2bY7TvAZzh0mhlQFzgbvJCC7W2iLvpzsC26Oey5AY%3d&amp;risl=&amp;pid=ImgRaw&amp;r=0&amp;sres=1&amp;sresct=1;" parent="1" vertex="1">
                    <mxGeometry x="306" y="-67.5" width="70" height="36.75" as="geometry"/>
                </mxCell>
                <mxCell id="38" style="edgeStyle=none;html=1;fontSize=8;endArrow=block;endFill=1;" parent="1" source="35" target="29" edge="1">
                    <mxGeometry relative="1" as="geometry"/>
                </mxCell>
                <mxCell id="35" value="&lt;font style=&quot;font-size: 8px;&quot;&gt;Approval Gate&lt;/font&gt;" style="rhombus;whiteSpace=wrap;html=1;" parent="1" vertex="1">
                    <mxGeometry x="438.72" y="14.5" width="80" height="51" as="geometry"/>
                </mxCell>
                <mxCell id="37" style="edgeStyle=none;html=1;exitX=1;exitY=0.5;exitDx=0;exitDy=0;entryX=0;entryY=0.5;entryDx=0;entryDy=0;fontSize=8;endArrow=block;endFill=1;" parent="1" source="30" target="35" edge="1">
                    <mxGeometry relative="1" as="geometry"/>
                </mxCell>
                <mxCell id="40" style="edgeStyle=none;html=1;entryX=0;entryY=0.5;entryDx=0;entryDy=0;fontSize=8;endArrow=block;endFill=1;" parent="1" source="36" target="25" edge="1">
                    <mxGeometry relative="1" as="geometry"/>
                </mxCell>
                <mxCell id="36" value="&lt;font style=&quot;font-size: 8px;&quot;&gt;Approval Gate&lt;/font&gt;" style="rhombus;whiteSpace=wrap;html=1;" parent="1" vertex="1">
                    <mxGeometry x="728.28" y="14.5" width="80" height="51" as="geometry"/>
                </mxCell>
                <mxCell id="39" style="edgeStyle=none;html=1;entryX=0;entryY=0.5;entryDx=0;entryDy=0;fontSize=8;endArrow=block;endFill=1;" parent="1" source="29" target="36" edge="1">
                    <mxGeometry relative="1" as="geometry"/>
                </mxCell>
                <mxCell id="59" value="DEV" style="rounded=0;whiteSpace=wrap;html=1;fontSize=8;" parent="1" vertex="1">
                    <mxGeometry x="413.71500000000003" y="395.5" width="130" height="20" as="geometry"/>
                </mxCell>
                <mxCell id="66" value="SANDBOX" style="rounded=0;whiteSpace=wrap;html=1;fontSize=8;" parent="1" vertex="1">
                    <mxGeometry x="55.5" y="540" width="130" height="21.92" as="geometry"/>
                </mxCell>
                <mxCell id="68" value="Developer 1 - folder" style="rounded=0;whiteSpace=wrap;html=1;fontSize=8;" parent="1" vertex="1">
                    <mxGeometry x="55.5" y="398" width="130" height="20" as="geometry"/>
                </mxCell>
                <mxCell id="69" value="Developer 2 - folder" style="rounded=0;whiteSpace=wrap;html=1;fontSize=8;" parent="1" vertex="1">
                    <mxGeometry x="55.5" y="421" width="130" height="20" as="geometry"/>
                </mxCell>
                <mxCell id="70" value="Developer 3 - folder" style="rounded=0;whiteSpace=wrap;html=1;fontSize=8;" parent="1" vertex="1">
                    <mxGeometry x="55.5" y="444" width="130" height="20" as="geometry"/>
                </mxCell>
                <mxCell id="71" value="LANDING" style="rounded=0;whiteSpace=wrap;html=1;fontSize=8;" parent="1" vertex="1">
                    <mxGeometry x="413.71500000000003" y="525.25" width="130" height="20" as="geometry"/>
                </mxCell>
                <mxCell id="72" value="INTERIM" style="rounded=0;whiteSpace=wrap;html=1;fontSize=8;" parent="1" vertex="1">
                    <mxGeometry x="413.71500000000003" y="548.75" width="130" height="20" as="geometry"/>
                </mxCell>
                <mxCell id="73" value="MALFORMED" style="rounded=0;whiteSpace=wrap;html=1;fontSize=8;" parent="1" vertex="1">
                    <mxGeometry x="413.71500000000003" y="571.75" width="130" height="20" as="geometry"/>
                </mxCell>
                <mxCell id="74" value="LIBS" style="rounded=0;whiteSpace=wrap;html=1;fontSize=8;" parent="1" vertex="1">
                    <mxGeometry x="413.71500000000003" y="594.75" width="130" height="20" as="geometry"/>
                </mxCell>
                <mxCell id="76" value="1" style="whiteSpace=wrap;html=1;aspect=fixed;fontSize=24;labelBackgroundColor=none;fillColor=#f59d56;fontColor=#000000;" parent="1" vertex="1">
                    <mxGeometry x="180.5" y="230" width="25" height="25" as="geometry"/>
                </mxCell>
                <mxCell id="78" value="2" style="whiteSpace=wrap;html=1;aspect=fixed;fontSize=24;labelBackgroundColor=none;fillColor=#f59d56;fontColor=#000000;" parent="1" vertex="1">
                    <mxGeometry x="59.5" y="50" width="25" height="25" as="geometry"/>
                </mxCell>
                <mxCell id="80" value="3" style="whiteSpace=wrap;html=1;aspect=fixed;fontSize=24;labelBackgroundColor=none;fillColor=#f59d56;fontColor=#000000;" parent="1" vertex="1">
                    <mxGeometry x="208.5" y="-50" width="25" height="25" as="geometry"/>
                </mxCell>
                <mxCell id="81" value="4" style="whiteSpace=wrap;html=1;aspect=fixed;fontSize=24;labelBackgroundColor=none;fillColor=#f59d56;fontColor=#000000;" parent="1" vertex="1">
                    <mxGeometry x="300" y="100" width="25" height="25" as="geometry"/>
                </mxCell>
                <mxCell id="82" value="5" style="whiteSpace=wrap;html=1;aspect=fixed;fontSize=24;labelBackgroundColor=none;fillColor=#f59d56;fontColor=#000000;" parent="1" vertex="1">
                    <mxGeometry x="285" y="691" width="25" height="25" as="geometry"/>
                </mxCell>
                <mxCell id="86" value="6" style="whiteSpace=wrap;html=1;aspect=fixed;fontSize=24;labelBackgroundColor=none;fillColor=#f59d56;fontColor=#000000;" parent="1" vertex="1">
                    <mxGeometry x="540" y="10" width="25" height="25" as="geometry"/>
                </mxCell>
                <mxCell id="87" value="&lt;font color=&quot;#000000&quot;&gt;Integration Tests&lt;/font&gt;" style="rounded=0;whiteSpace=wrap;html=1;fontSize=15;fillColor=#ebf1df;" parent="1" vertex="1">
                    <mxGeometry x="680" y="117.5" width="200.85" height="40" as="geometry"/>
                </mxCell>
                <mxCell id="88" value="7" style="whiteSpace=wrap;html=1;aspect=fixed;fontSize=24;labelBackgroundColor=none;fillColor=#f59d56;fontColor=#000000;" parent="1" vertex="1">
                    <mxGeometry x="690" y="125" width="25" height="25" as="geometry"/>
                </mxCell>
                <mxCell id="89" value="8" style="whiteSpace=wrap;html=1;aspect=fixed;fontSize=24;labelBackgroundColor=none;fillColor=#f59d56;fontColor=#000000;" parent="1" vertex="1">
                    <mxGeometry x="840" y="10" width="25" height="25" as="geometry"/>
                </mxCell>
                <mxCell id="105" value="" style="shape=image;verticalLabelPosition=bottom;labelBackgroundColor=default;verticalAlign=top;aspect=fixed;imageAspect=0;image=https://vectorseek.com/wp-content/uploads/2023/08/Azure-Databricks-Logo-Vector.svg-.png;" parent="1" vertex="1">
                    <mxGeometry x="1033.405" y="388.25" width="53.19" height="60" as="geometry"/>
                </mxCell>
                <mxCell id="106" value="" style="shape=image;verticalLabelPosition=bottom;labelBackgroundColor=default;verticalAlign=top;aspect=fixed;imageAspect=0;image=https://www.latindevelopers.com/wp-content/uploads/2017/12/sql_icon-640x640.png;" parent="1" vertex="1">
                    <mxGeometry x="1035" y="260" width="50" height="50" as="geometry"/>
                </mxCell>
                <mxCell id="107" value="" style="shape=image;verticalLabelPosition=bottom;labelBackgroundColor=default;verticalAlign=top;aspect=fixed;imageAspect=0;image=https://azure.microsoft.com/svghandler/storage-blobs/?width=600&amp;height=315;" parent="1" vertex="1">
                    <mxGeometry x="1019.045" y="548.75" width="81.91" height="43" as="geometry"/>
                </mxCell>
                <mxCell id="108" value="" style="shape=image;verticalLabelPosition=bottom;labelBackgroundColor=default;verticalAlign=top;aspect=fixed;imageAspect=0;image=https://azureplayer.net/wp-content/uploads/2018/12/azure-data-factory-300x257.png;" parent="1" vertex="1">
                    <mxGeometry x="1032.57" y="696" width="54.86" height="47" as="geometry"/>
                </mxCell>
                <mxCell id="114" value="" style="group" parent="1" vertex="1" connectable="0">
                    <mxGeometry x="55.5" y="711" width="35.33" height="32" as="geometry"/>
                </mxCell>
                <mxCell id="112" value="" style="shape=image;verticalLabelPosition=bottom;labelBackgroundColor=default;verticalAlign=top;aspect=fixed;imageAspect=0;image=https://azureplayer.net/wp-content/uploads/2018/12/azure-data-factory-300x257.png;" parent="114" vertex="1">
                    <mxGeometry x="6.810000000000002" width="28.52" height="24.43" as="geometry"/>
                </mxCell>
                <mxCell id="113" value="" style="shape=image;verticalLabelPosition=bottom;labelBackgroundColor=default;verticalAlign=top;aspect=fixed;imageAspect=0;image=https://cdn.freebiesupply.com/logos/large/2x/git-icon-logo-png-transparent.png;" parent="114" vertex="1">
                    <mxGeometry y="13.240000000000009" width="18.76" height="18.76" as="geometry"/>
                </mxCell>
                <mxCell id="115" value="" style="group" parent="1" vertex="1" connectable="0">
                    <mxGeometry x="110" y="711" width="35.33" height="32" as="geometry"/>
                </mxCell>
                <mxCell id="116" value="" style="shape=image;verticalLabelPosition=bottom;labelBackgroundColor=default;verticalAlign=top;aspect=fixed;imageAspect=0;image=https://azureplayer.net/wp-content/uploads/2018/12/azure-data-factory-300x257.png;" parent="115" vertex="1">
                    <mxGeometry x="6.810000000000002" width="28.52" height="24.43" as="geometry"/>
                </mxCell>
                <mxCell id="117" value="" style="shape=image;verticalLabelPosition=bottom;labelBackgroundColor=default;verticalAlign=top;aspect=fixed;imageAspect=0;image=https://cdn.freebiesupply.com/logos/large/2x/git-icon-logo-png-transparent.png;" parent="115" vertex="1">
                    <mxGeometry y="13.240000000000009" width="18.76" height="18.76" as="geometry"/>
                </mxCell>
                <mxCell id="121" value="" style="group" parent="1" vertex="1" connectable="0">
                    <mxGeometry x="164.67" y="711" width="35.33" height="32" as="geometry"/>
                </mxCell>
                <mxCell id="122" value="" style="shape=image;verticalLabelPosition=bottom;labelBackgroundColor=default;verticalAlign=top;aspect=fixed;imageAspect=0;image=https://azureplayer.net/wp-content/uploads/2018/12/azure-data-factory-300x257.png;" parent="121" vertex="1">
                    <mxGeometry x="6.810000000000002" width="28.52" height="24.43" as="geometry"/>
                </mxCell>
                <mxCell id="123" value="" style="shape=image;verticalLabelPosition=bottom;labelBackgroundColor=default;verticalAlign=top;aspect=fixed;imageAspect=0;image=https://cdn.freebiesupply.com/logos/large/2x/git-icon-logo-png-transparent.png;" parent="121" vertex="1">
                    <mxGeometry y="13.240000000000009" width="18.76" height="18.76" as="geometry"/>
                </mxCell>
                <mxCell id="125" value="&lt;font style=&quot;&quot; color=&quot;#004c99&quot;&gt;DEV RG&lt;/font&gt;" style="text;html=1;strokeColor=none;fillColor=none;align=center;verticalAlign=middle;whiteSpace=wrap;rounded=0;labelBackgroundColor=none;fontSize=24;fontColor=#000000;" parent="1" vertex="1">
                    <mxGeometry x="-7.105427357601002e-15" y="180" width="110" height="40" as="geometry"/>
                </mxCell>
                <mxCell id="126" value="&lt;font style=&quot;&quot; color=&quot;#004c99&quot;&gt;STG RG&lt;/font&gt;" style="text;html=1;strokeColor=none;fillColor=none;align=center;verticalAlign=middle;whiteSpace=wrap;rounded=0;labelBackgroundColor=none;fontSize=24;fontColor=#000000;" parent="1" vertex="1">
                    <mxGeometry x="680" y="180" width="110" height="40" as="geometry"/>
                </mxCell>
                <mxCell id="127" value="&lt;font style=&quot;&quot; color=&quot;#004c99&quot;&gt;PROD RG&lt;/font&gt;" style="text;html=1;strokeColor=none;fillColor=none;align=center;verticalAlign=middle;whiteSpace=wrap;rounded=0;labelBackgroundColor=none;fontSize=24;fontColor=#000000;" parent="1" vertex="1">
                    <mxGeometry x="960" y="180" width="130" height="40" as="geometry"/>
                </mxCell>
                <mxCell id="128" value="&lt;font style=&quot;font-size: 8px;&quot;&gt;Indv. Developer Workspace folders&lt;/font&gt;" style="text;html=1;strokeColor=none;fillColor=none;align=center;verticalAlign=middle;whiteSpace=wrap;rounded=0;fontColor=#000000;" parent="1" vertex="1">
                    <mxGeometry x="15.5" y="368.58" width="210" height="30" as="geometry"/>
                </mxCell>
                <mxCell id="129" value="&lt;font style=&quot;font-size: 6px;&quot;&gt;Developer 1&lt;br&gt;AzureSQL&lt;br&gt;&lt;/font&gt;" style="text;html=1;strokeColor=none;fillColor=none;align=center;verticalAlign=middle;whiteSpace=wrap;rounded=0;fontColor=#000000;" parent="1" vertex="1">
                    <mxGeometry x="50" y="300" width="50" height="20" as="geometry"/>
                </mxCell>
                <mxCell id="130" value="&lt;font style=&quot;font-size: 6px;&quot;&gt;Developer 2&lt;br&gt;AzureSQL&lt;br&gt;&lt;/font&gt;" style="text;html=1;strokeColor=none;fillColor=none;align=center;verticalAlign=middle;whiteSpace=wrap;rounded=0;fontColor=#000000;" vertex="1" parent="1">
                    <mxGeometry x="95.5" y="300" width="50" height="20" as="geometry"/>
                </mxCell>
                <mxCell id="131" value="&lt;font style=&quot;font-size: 6px;&quot;&gt;Developer X&lt;br&gt;AzureSQL&lt;br&gt;&lt;/font&gt;" style="text;html=1;strokeColor=none;fillColor=none;align=center;verticalAlign=middle;whiteSpace=wrap;rounded=0;fontColor=#000000;" vertex="1" parent="1">
                    <mxGeometry x="140.5" y="300" width="50" height="20" as="geometry"/>
                </mxCell>
                <mxCell id="132" value="&lt;font style=&quot;&quot;&gt;&lt;font style=&quot;font-size: 14px;&quot;&gt;SANDBOX&lt;/font&gt;&lt;br&gt;&lt;/font&gt;" style="text;html=1;strokeColor=none;fillColor=none;align=center;verticalAlign=middle;whiteSpace=wrap;rounded=0;fontColor=#000000;" vertex="1" parent="1">
                    <mxGeometry x="83.25" y="226.25" width="74.5" height="32.5" as="geometry"/>
                </mxCell>
                <mxCell id="133" value="&lt;font style=&quot;&quot;&gt;&lt;font style=&quot;font-size: 14px;&quot;&gt;DEV&lt;/font&gt;&lt;br&gt;&lt;/font&gt;" style="text;html=1;strokeColor=none;fillColor=none;align=center;verticalAlign=middle;whiteSpace=wrap;rounded=0;fontColor=#000000;" vertex="1" parent="1">
                    <mxGeometry x="441.46500000000003" y="226.25" width="74.5" height="32.5" as="geometry"/>
                </mxCell>
                <mxCell id="134" value="&lt;font style=&quot;font-size: 8px;&quot;&gt;Dev Workspace folder&lt;/font&gt;" style="text;html=1;strokeColor=none;fillColor=none;align=center;verticalAlign=middle;whiteSpace=wrap;rounded=0;fontColor=#000000;" vertex="1" parent="1">
                    <mxGeometry x="373.71500000000003" y="365.5" width="210" height="30" as="geometry"/>
                </mxCell>
                <mxCell id="135" value="&lt;font style=&quot;font-size: 8px;&quot;&gt;ADLS Gen2&lt;/font&gt;" style="text;html=1;strokeColor=none;fillColor=none;align=center;verticalAlign=middle;whiteSpace=wrap;rounded=0;fontColor=#000000;" vertex="1" parent="1">
                    <mxGeometry x="42.190000000000005" y="519.5" width="52.81" height="11.5" as="geometry"/>
                </mxCell>
                <mxCell id="137" value="&lt;span style=&quot;font-size: 8px;&quot;&gt;Data Factory&lt;/span&gt;" style="text;html=1;strokeColor=none;fillColor=none;align=center;verticalAlign=middle;whiteSpace=wrap;rounded=0;fontColor=#000000;" vertex="1" parent="1">
                    <mxGeometry x="41.690000000000005" y="672.86" width="52.81" height="11.5" as="geometry"/>
                </mxCell>
                <mxCell id="138" value="&lt;span style=&quot;font-size: 8px;&quot;&gt;Dev1/branch&lt;/span&gt;" style="text;html=1;strokeColor=none;fillColor=none;align=center;verticalAlign=middle;whiteSpace=wrap;rounded=0;fontColor=#000000;" vertex="1" parent="1">
                    <mxGeometry x="48.59" y="743" width="52.81" height="11.5" as="geometry"/>
                </mxCell>
                <mxCell id="139" value="&lt;span style=&quot;font-size: 8px;&quot;&gt;Dev2/branch&lt;/span&gt;" style="text;html=1;strokeColor=none;fillColor=none;align=center;verticalAlign=middle;whiteSpace=wrap;rounded=0;fontColor=#000000;" vertex="1" parent="1">
                    <mxGeometry x="101.26" y="743" width="52.81" height="11.5" as="geometry"/>
                </mxCell>
                <mxCell id="140" value="&lt;span style=&quot;font-size: 8px;&quot;&gt;DevX/branch&lt;/span&gt;" style="text;html=1;strokeColor=none;fillColor=none;align=center;verticalAlign=middle;whiteSpace=wrap;rounded=0;fontColor=#000000;" vertex="1" parent="1">
                    <mxGeometry x="155.93" y="743" width="52.81" height="11.5" as="geometry"/>
                </mxCell>
                <mxCell id="141" value="&lt;font style=&quot;font-size: 6px;&quot;&gt;DEV AzureSQL&lt;br&gt;&lt;/font&gt;" style="text;html=1;strokeColor=none;fillColor=none;align=center;verticalAlign=middle;whiteSpace=wrap;rounded=0;fontColor=#000000;" vertex="1" parent="1">
                    <mxGeometry x="453.71500000000003" y="310" width="50" height="20" as="geometry"/>
                </mxCell>
                <mxCell id="142" value="&lt;font style=&quot;font-size: 8px;&quot;&gt;DEV ADF&lt;/font&gt;" style="text;html=1;strokeColor=none;fillColor=none;align=center;verticalAlign=middle;whiteSpace=wrap;rounded=0;fontColor=#000000;" vertex="1" parent="1">
                    <mxGeometry x="373.71500000000003" y="733.75" width="210" height="30" as="geometry"/>
                </mxCell>
                <mxCell id="144" value="&lt;font style=&quot;&quot;&gt;&lt;font style=&quot;font-size: 14px;&quot;&gt;STAGE&lt;/font&gt;&lt;br&gt;&lt;/font&gt;" style="text;html=1;strokeColor=none;fillColor=none;align=center;verticalAlign=middle;whiteSpace=wrap;rounded=0;fontColor=#000000;" vertex="1" parent="1">
                    <mxGeometry x="742.75" y="226.25" width="74.5" height="32.5" as="geometry"/>
                </mxCell>
                <mxCell id="145" value="&lt;font style=&quot;&quot;&gt;&lt;font style=&quot;font-size: 14px;&quot;&gt;PRODUCTION&lt;/font&gt;&lt;br&gt;&lt;/font&gt;" style="text;html=1;strokeColor=none;fillColor=none;align=center;verticalAlign=middle;whiteSpace=wrap;rounded=0;fontColor=#000000;" vertex="1" parent="1">
                    <mxGeometry x="1022.75" y="226.25" width="74.5" height="32.5" as="geometry"/>
                </mxCell>
                <mxCell id="146" value="&lt;font style=&quot;font-size: 8px;&quot;&gt;AzureSQL&lt;/font&gt;" style="text;html=1;strokeColor=none;fillColor=none;align=center;verticalAlign=middle;whiteSpace=wrap;rounded=0;fontColor=#000000;" vertex="1" parent="1">
                    <mxGeometry x="753.595" y="314.25" width="52.81" height="11.5" as="geometry"/>
                </mxCell>
                <mxCell id="147" value="&lt;font style=&quot;font-size: 8px;&quot;&gt;AzureSQL&lt;/font&gt;" style="text;html=1;strokeColor=none;fillColor=none;align=center;verticalAlign=middle;whiteSpace=wrap;rounded=0;fontColor=#000000;" vertex="1" parent="1">
                    <mxGeometry x="1033.595" y="314.25" width="52.81" height="11.5" as="geometry"/>
                </mxCell>
                <mxCell id="148" value="&lt;font style=&quot;font-size: 8px;&quot;&gt;Databricks&lt;/font&gt;" style="text;html=1;strokeColor=none;fillColor=none;align=center;verticalAlign=middle;whiteSpace=wrap;rounded=0;fontColor=#000000;" vertex="1" parent="1">
                    <mxGeometry x="1033.595" y="452.5" width="52.81" height="11.5" as="geometry"/>
                </mxCell>
                <mxCell id="149" value="&lt;font style=&quot;font-size: 8px;&quot;&gt;Databricks&lt;/font&gt;" style="text;html=1;strokeColor=none;fillColor=none;align=center;verticalAlign=middle;whiteSpace=wrap;rounded=0;fontColor=#000000;" vertex="1" parent="1">
                    <mxGeometry x="753.595" y="452.5" width="52.81" height="11.5" as="geometry"/>
                </mxCell>
                <mxCell id="150" value="&lt;font style=&quot;font-size: 8px;&quot;&gt;ADLS Gen2&lt;/font&gt;" style="text;html=1;strokeColor=none;fillColor=none;align=center;verticalAlign=middle;whiteSpace=wrap;rounded=0;fontColor=#000000;" vertex="1" parent="1">
                    <mxGeometry x="1033.595" y="594.75" width="52.81" height="11.5" as="geometry"/>
                </mxCell>
                <mxCell id="151" value="&lt;font style=&quot;font-size: 8px;&quot;&gt;ADLS Gen2&lt;/font&gt;" style="text;html=1;strokeColor=none;fillColor=none;align=center;verticalAlign=middle;whiteSpace=wrap;rounded=0;fontColor=#000000;" vertex="1" parent="1">
                    <mxGeometry x="753.595" y="594.75" width="52.81" height="11.5" as="geometry"/>
                </mxCell>
                <mxCell id="152" value="&lt;font style=&quot;font-size: 8px;&quot;&gt;ADF&lt;/font&gt;" style="text;html=1;strokeColor=none;fillColor=none;align=center;verticalAlign=middle;whiteSpace=wrap;rounded=0;fontColor=#000000;" vertex="1" parent="1">
                    <mxGeometry x="753.595" y="748.25" width="52.81" height="11.5" as="geometry"/>
                </mxCell>
                <mxCell id="153" value="&lt;font style=&quot;font-size: 8px;&quot;&gt;ADF&lt;/font&gt;" style="text;html=1;strokeColor=none;fillColor=none;align=center;verticalAlign=middle;whiteSpace=wrap;rounded=0;fontColor=#000000;" vertex="1" parent="1">
                    <mxGeometry x="1033.595" y="748.25" width="52.81" height="11.5" as="geometry"/>
                </mxCell>
                <mxCell id="154" value="&lt;font style=&quot;&quot;&gt;&lt;font style=&quot;font-size: 14px;&quot;&gt;&lt;i&gt;Continuous Integration&lt;/i&gt;&lt;/font&gt;&lt;br&gt;&lt;/font&gt;" style="text;html=1;strokeColor=none;fillColor=none;align=center;verticalAlign=middle;whiteSpace=wrap;rounded=0;fontColor=#000000;" vertex="1" parent="1">
                    <mxGeometry x="38.5" y="-32" width="183" height="32.5" as="geometry"/>
                </mxCell>
                <mxCell id="155" value="&lt;font style=&quot;&quot;&gt;&lt;font style=&quot;font-size: 14px;&quot;&gt;&lt;i&gt;Continuous Delivery&lt;/i&gt;&lt;/font&gt;&lt;br&gt;&lt;/font&gt;" style="text;html=1;strokeColor=none;fillColor=none;align=center;verticalAlign=middle;whiteSpace=wrap;rounded=0;fontColor=#000000;" vertex="1" parent="1">
                    <mxGeometry x="382" y="-32" width="183" height="32.5" as="geometry"/>
                </mxCell>
            </root>
        </mxGraphModel>
    </diagram>
</mxfile>